# xmcd
#
# Track frame offsets:
#	150
#	15455
#	29574
#	44732
#	57182
#	70695
#	87075
#	100819
#	113295
#	128322
#	145130
#
# Disc length: 2162 seconds
#
# Revision: 1
# Processed by: cddbd v1.5.2PL0 Copyright (c) Steve Scherf et al.
# Submitted via: audiograbber 1.83.01
#
DISCID=8308700b
DTITLE=Kane Brown - Kane Brown
DYEAR=2015
DGENRE=Country
TTITLE0=HomeTown
TTITLE1=What IFS
TTITLE2=Learnin
TTITLE3=Thunder In the Rain
TTITLE4=Pull It Off
TTITLE5=Cold Spot
TTITLE6=Ain't No Stoppin Us Now
TTITLE7=Comeback
TTITLE8=RockStars
TTITLE9=Better Place
TTITLE10=Grandaddy's Chair
EXTD=
EXTT0=
EXTT1=
EXTT2=
EXTT3=
EXTT4=
EXTT5=
EXTT6=
EXTT7=
EXTT8=
EXTT9=
EXTT10=
PLAYORDER=
